name Walk8.mot
datacolumns 19
datarows 30
range 1.66000000 1.80500000
endheader

                time	   L_ground_force_vx	   L_ground_force_vy	   L_ground_force_vz	   L_ground_force_px	   L_ground_force_py	   L_ground_force_pz	   R_ground_force_vx	   R_ground_force_vy	   R_ground_force_vz	   R_ground_force_px	   R_ground_force_py	   R_ground_force_pz	   L_ground_torque_x	   L_ground_torque_y	   L_ground_torque_z	   R_ground_torque_x	   R_ground_torque_y	   R_ground_torque_z	
          1.66000000	          4.04222460	        694.49847397	         43.58199737	         -0.30361684	          0.00000000	         -0.07805335	         -0.10916749	          0.55058019	          0.01687859	          0.00001789	          0.00000000	         -0.00000389	          0.00000000	          0.78254480	          0.00000000	          0.00000000	          0.00173336	          0.00000000	
          1.66500000	          7.17709946	        702.65672932	         43.54520850	         -0.30223157	          0.00000000	         -0.07787583	         -0.09229211	          0.28235836	          0.00369612	         -0.00003118	          0.00000000	         -0.00007208	          0.00000000	          0.81542496	          0.00000000	          0.00000000	          0.00971349	          0.00000000	
          1.67000000	         10.42133342	        710.92742734	         43.46675798	         -0.30089757	          0.00000000	         -0.07766158	         -0.05459477	         -0.17072403	         -0.01731619	         -0.00010385	          0.00000000	         -0.00016952	          0.00000000	          0.83962077	          0.00000000	          0.00000000	          0.02095961	          0.00000000	
          1.67500000	         13.75285968	        719.23329454	         43.33687154	         -0.29960757	          0.00000000	         -0.07741232	          0.01092276	         -0.85619644	         -0.04794678	         -0.00020436	          0.00000000	         -0.00030056	          0.00000000	          0.85478583	          0.00000000	          0.00000000	          0.03591167	          0.00000000	
          1.68000000	         17.15544977	        727.49150319	         43.14886979	         -0.29835415	          0.00000000	         -0.07713052	          0.11174239	         -1.81951516	         -0.08979833	         -0.00033590	          0.00000000	         -0.00046784	          0.00000000	          0.86066169	          0.00000000	          0.00000000	          0.05479869	          0.00000000	
          1.68500000	         20.62165960	        735.61198312	         42.90020000	         -0.29712991	          0.00000000	         -0.07681837	          0.25517750	         -3.09729750	         -0.14398612	         -0.00049958	          0.00000000	         -0.00067099	          0.00000000	          0.85710720	          0.00000000	          0.00000000	          0.07749251	          0.00000000	
          1.69000000	         24.15453863	        743.49901706	         42.59271743	         -0.29592840	          0.00000000	         -0.07647643	          0.44737675	         -4.70786161	         -0.21072794	         -0.00069322	          0.00000000	         -0.00090502	          0.00000000	          0.84423167	          0.00000000	          0.00000000	          0.10332379	          0.00000000	
          1.69500000	         27.76985999	        751.04907053	         42.23257494	         -0.29474543	          0.00000000	         -0.07610485	          0.69191424	         -6.63873107	         -0.28881510	         -0.00090968	          0.00000000	         -0.00115835	          0.00000000	          0.82260292	          0.00000000	          0.00000000	          0.13086184	          0.00000000	
          1.70000000	         31.49944105	        758.14833670	         41.82865832	         -0.29357936	          0.00000000	         -0.07570410	          0.98790859	         -8.83094777	         -0.37496362	         -0.00113504	          0.00000000	         -0.00141054	          0.00000000	          0.79343579	          0.00000000	          0.00000000	          0.15766517	          0.00000000	
          1.70500000	         35.38947192	        764.67133608	         41.38963453	         -0.29243109	          0.00000000	         -0.07527382	          1.32763930	        -11.16034217	         -0.46305833	         -0.00134647	          0.00000000	         -0.00162983	          0.00000000	          0.75835761	          0.00000000	          0.00000000	          0.18001720	          0.00000000	
          1.71000000	         39.49227666	        770.47954761	         40.92196077	         -0.29130373	          0.00000000	         -0.07481166	          1.69367327	        -13.41636898	         -0.54332334	         -0.00151011	          0.00000000	         -0.00177078	          0.00000000	          0.71892672	          0.00000000	          0.00000000	          0.19267133	          0.00000000	
          1.71500000	         43.86082351	        775.41823704	         40.42856125	         -0.29020031	          0.00000000	         -0.07431464	          2.05558175	        -15.27975636	         -0.60147995	         -0.00157906	          0.00000000	         -0.00177220	          0.00000000	          0.67651825	          0.00000000	          0.00000000	          0.18864214	          0.00000000	
          1.72000000	         48.54405598	        779.31471302	         39.90700064	         -0.28912320	          0.00000000	         -0.07378030	          2.36642353	        -16.30106183	         -0.61798881	         -0.00149183	          0.00000000	         -0.00155585	          0.00000000	          0.63240513	          0.00000000	          0.00000000	          0.15909423	          0.00000000	
          1.72500000	         53.58170712	        781.97873062	         39.34813474	         -0.28807477	          0.00000000	         -0.07320697	          2.55929742	        -15.88328620	         -0.56751703	         -0.00117182	          0.00000000	         -0.00102659	          0.00000000	          0.58758338	          0.00000000	          0.00000000	          0.09339702	          0.00000000	
          1.73000000	         58.99926643	        783.20057990	         38.73533817	         -0.28705781	          0.00000000	         -0.07259379	          2.54442783	        -13.27296015	         -0.41882157	         -0.00052829	          0.00000000	         -0.00007467	          0.00000000	          0.54263964	          0.00000000	          0.00000000	         -0.02056834	          0.00000000	
          1.73500000	         64.80129205	        782.74652719	         38.04407228	         -0.28607618	          0.00000000	         -0.07194219	          2.20744108	         -7.56554199	         -0.13529642	          0.00054038	          0.00000000	          0.00141895	          0.00000000	          0.49765513	          0.00000000	          0.00000000	         -0.19574696	          0.00000000	
          1.74000000	         70.96363235	        780.35253284	         37.24266920	         -0.28513482	          0.00000000	         -0.07125526	          1.40971132	          2.26753386	          0.32351279	          0.00214020	          0.00000000	          0.00357306	          0.00000000	          0.45217407	          0.00000000	          0.00000000	         -0.44477585	          0.00000000	
          1.74500000	         77.42697617	        775.72292512	         36.29445783	         -0.28423961	          0.00000000	         -0.07053659	         -0.00810928	         17.32138223	          0.99907235	          0.00437097	          0.00000000	          0.00649149	          0.00000000	          0.40552531	          0.00000000	          0.00000000	         -0.77825309	          0.00000000	
          1.75000000	         84.09202790	        768.53562393	         35.16079336	         -0.28339705	          0.00000000	         -0.06979060	         -2.21802985	         38.65983513	          1.92931254	          0.00731053	          0.00000000	          0.01024184	          0.00000000	          0.35726097	          0.00000000	          0.00000000	         -1.20229028	          0.00000000	
          1.75500000	         90.81526676	        758.44975891	         33.80461577	         -0.28261438	          0.00000000	         -0.06902160	         -5.39058979	         67.16674238	          3.14197181	          0.01099282	          0.00000000	          0.01482696	          0.00000000	          0.30725070	          0.00000000	          0.00000000	         -1.71524911	          0.00000000	
          1.76000000	         97.40900921	        745.11412166	         32.19410963	         -0.28189999	          0.00000000	         -0.06823345	         -9.67300430	        103.33628975	          4.64547473	          0.01537919	          0.00000000	          0.02014832	          0.00000000	          0.25592668	          0.00000000	          0.00000000	         -2.30360833	          0.00000000	
          1.76500000	        103.64800306	        728.18020155	         30.30608006	         -0.28126204	          0.00000000	         -0.06743056	        -15.15796155	        146.99408182	          6.41708918	          0.02032252	          0.00000000	          0.02596148	          0.00000000	          0.20461758	          0.00000000	          0.00000000	         -2.93698417	          0.00000000	
          1.77000000	        109.27802847	        707.32434066	         28.12785881	         -0.28070494	          0.00000000	         -0.06661896	        -21.84337780	        196.95429891	          8.38795142	          0.02553667	          0.00000000	          0.03184232	          0.00000000	          0.15526216	          0.00000000	          0.00000000	         -3.56245536	          0.00000000	
          1.77500000	        114.02249008	        682.27844811	         25.65877907	         -0.28022571	          0.00000000	         -0.06580670	        -29.61436043	        250.88251634	         10.41601837	          0.03070714	          0.00000000	          0.03735076	          0.00000000	          0.11013321	          0.00000000	          0.00000000	         -4.10069047	          0.00000000	
          1.78000000	        117.58701439	        652.87192627	         22.91313378	         -0.27980850	          0.00000000	         -0.06500310	        -38.28212405	        306.09913043	         12.24085331	          0.03564563	          0.00000000	          0.04223437	          0.00000000	          0.07131365	          0.00000000	          0.00000000	         -4.45932673	          0.00000000	
          1.78500000	        119.67269035	        619.08052460	         19.92363488	         -0.27941820	          0.00000000	         -0.06421743	        -47.59847382	        360.62413769	         13.51465999	          0.04026620	          0.00000000	          0.04639830	          0.00000000	          0.04040239	          0.00000000	          0.00000000	         -4.56681712	          0.00000000	
          1.79000000	        120.01300314	        581.06468439	         16.74454673	         -0.27899231	          0.00000000	         -0.06345784	        -57.25155566	        413.28962275	         13.92605173	          0.04454551	          0.00000000	          0.04985047	          0.00000000	          0.01813495	          0.00000000	          0.00000000	         -4.39376161	          0.00000000	
          1.79500000	        118.41144857	        539.18925662	         13.45261721	         -0.27843216	          0.00000000	         -0.06272938	        -66.90592153	        463.54438285	         13.29101570	          0.04849615	          0.00000000	          0.05265713	          0.00000000	          0.00411525	          0.00000000	          0.00000000	         -3.95397139	          0.00000000	
          1.80000000	        114.75443373	        494.02876432	         10.14833384	         -0.27759476	          0.00000000	         -0.06203197	        -76.28136556	        511.30906484	         11.58647151	          0.05214556	          0.00000000	          0.05490776	          0.00000000	         -0.00283674	          0.00000000	          0.00000000	         -3.29268969	          0.00000000	
          1.80500000	        109.01774169	        446.35751167	          6.95436570	         -0.27628181	          0.00000000	         -0.06135837	        -85.21954136	        556.79521818	          8.93656175	          0.05552538	          0.00000000	          0.05669333	          0.00000000	         -0.00406232	          0.00000000	          0.00000000	         -2.46792471	          0.00000000	
